<svg id="visual" viewBox="0 0 960 540" width="960" height="540" xmlns="http://www.w3.org/2000/svg" xmlns:xlink="http://www.w3.org/1999/xlink" version="1.1"><g stroke-width="1" stroke-linejoin="bevel"><path d="M485 238L442 162L417 172Z" fill="#383838" stroke="#383838"></path><path d="M417 172L404 288L485 238Z" fill="#101010" stroke="#101010"></path><path d="M442 162L386 118L417 172Z" fill="#1f1f1f" stroke="#1f1f1f"></path><path d="M417 172L287 254L404 288Z" fill="#1a1a1a" stroke="#1a1a1a"></path><path d="M485 238L514 89L442 162Z" fill="#333333" stroke="#333333"></path><path d="M442 162L514 89L386 118Z" fill="#101010" stroke="#101010"></path><path d="M386 118L324 141L417 172Z" fill="#161616" stroke="#161616"></path><path d="M404 288L456 350L485 238Z" fill="#000000" stroke="#000000"></path><path d="M456 350L538 328L485 238Z" fill="#161616" stroke="#161616"></path><path d="M485 238L609 176L514 89Z" fill="#2e2e2e" stroke="#2e2e2e"></path><path d="M287 254L398 364L404 288Z" fill="#090909" stroke="#090909"></path><path d="M404 288L398 364L456 350Z" fill="#1a1a1a" stroke="#1a1a1a"></path><path d="M324 141L287 254L417 172Z" fill="#1f1f1f" stroke="#1f1f1f"></path><path d="M610 277L609 176L485 238Z" fill="#1f1f1f" stroke="#1f1f1f"></path><path d="M538 328L610 277L485 238Z" fill="#383838" stroke="#383838"></path><path d="M609 176L613 91L514 89Z" fill="#292929" stroke="#292929"></path><path d="M666 108L613 91L609 176Z" fill="#090909" stroke="#090909"></path><path d="M609 0L462 0L514 89Z" fill="#101010" stroke="#101010"></path><path d="M514 89L462 0L386 118Z" fill="#292929" stroke="#292929"></path><path d="M386 118L287 66L324 141Z" fill="#161616" stroke="#161616"></path><path d="M462 0L419 0L386 118Z" fill="#000000" stroke="#000000"></path><path d="M419 0L287 66L386 118Z" fill="#292929" stroke="#292929"></path><path d="M324 141L229 168L287 254Z" fill="#000000" stroke="#000000"></path><path d="M287 66L229 168L324 141Z" fill="#161616" stroke="#161616"></path><path d="M691 389L664 259L610 277Z" fill="#292929" stroke="#292929"></path><path d="M610 277L664 259L609 176Z" fill="#2e2e2e" stroke="#2e2e2e"></path><path d="M443 485L545 414L456 350Z" fill="#101010" stroke="#101010"></path><path d="M456 350L545 414L538 328Z" fill="#161616" stroke="#161616"></path><path d="M538 328L636 424L610 277Z" fill="#000000" stroke="#000000"></path><path d="M318 424L364 424L398 364Z" fill="#101010" stroke="#101010"></path><path d="M398 364L443 485L456 350Z" fill="#383838" stroke="#383838"></path><path d="M318 424L398 364L263 383Z" fill="#333333" stroke="#333333"></path><path d="M702 169L666 108L609 176Z" fill="#2e2e2e" stroke="#2e2e2e"></path><path d="M613 91L609 0L514 89Z" fill="#000000" stroke="#000000"></path><path d="M263 383L398 364L287 254Z" fill="#1a1a1a" stroke="#1a1a1a"></path><path d="M172 366L263 383L287 254Z" fill="#292929" stroke="#292929"></path><path d="M664 259L702 169L609 176Z" fill="#000000" stroke="#000000"></path><path d="M709 0L609 0L666 108Z" fill="#1a1a1a" stroke="#1a1a1a"></path><path d="M666 108L609 0L613 91Z" fill="#161616" stroke="#161616"></path><path d="M364 424L443 485L398 364Z" fill="#333333" stroke="#333333"></path><path d="M354 540L443 485L364 424Z" fill="#2e2e2e" stroke="#2e2e2e"></path><path d="M419 0L254 0L287 66Z" fill="#383838" stroke="#383838"></path><path d="M287 66L191 60L229 168Z" fill="#1f1f1f" stroke="#1f1f1f"></path><path d="M570 540L636 424L545 414Z" fill="#1a1a1a" stroke="#1a1a1a"></path><path d="M545 414L636 424L538 328Z" fill="#333333" stroke="#333333"></path><path d="M664 259L770 275L702 169Z" fill="#242424" stroke="#242424"></path><path d="M89 250L158 259L78 141Z" fill="#383838" stroke="#383838"></path><path d="M229 168L158 259L287 254Z" fill="#000000" stroke="#000000"></path><path d="M254 0L191 60L287 66Z" fill="#2e2e2e" stroke="#2e2e2e"></path><path d="M636 424L691 389L610 277Z" fill="#333333" stroke="#333333"></path><path d="M263 383L225 423L318 424Z" fill="#000000" stroke="#000000"></path><path d="M354 540L476 540L443 485Z" fill="#161616" stroke="#161616"></path><path d="M172 366L225 423L263 383Z" fill="#161616" stroke="#161616"></path><path d="M158 259L172 366L287 254Z" fill="#1f1f1f" stroke="#1f1f1f"></path><path d="M691 389L770 275L664 259Z" fill="#1f1f1f" stroke="#1f1f1f"></path><path d="M790 90L709 0L666 108Z" fill="#1f1f1f" stroke="#1f1f1f"></path><path d="M354 540L364 424L318 424Z" fill="#000000" stroke="#000000"></path><path d="M443 485L476 540L545 414Z" fill="#1a1a1a" stroke="#1a1a1a"></path><path d="M767 433L759 393L691 389Z" fill="#101010" stroke="#101010"></path><path d="M790 90L666 108L702 169Z" fill="#383838" stroke="#383838"></path><path d="M317 540L354 540L318 424Z" fill="#1a1a1a" stroke="#1a1a1a"></path><path d="M476 540L570 540L545 414Z" fill="#1f1f1f" stroke="#1f1f1f"></path><path d="M254 0L162 0L191 60Z" fill="#090909" stroke="#090909"></path><path d="M78 141L158 259L229 168Z" fill="#2e2e2e" stroke="#2e2e2e"></path><path d="M171 540L317 540L225 423Z" fill="#090909" stroke="#090909"></path><path d="M225 423L317 540L318 424Z" fill="#101010" stroke="#101010"></path><path d="M770 275L802 203L702 169Z" fill="#2e2e2e" stroke="#2e2e2e"></path><path d="M158 259L89 250L172 366Z" fill="#1f1f1f" stroke="#1f1f1f"></path><path d="M98 92L229 168L191 60Z" fill="#333333" stroke="#333333"></path><path d="M767 433L691 389L636 424Z" fill="#090909" stroke="#090909"></path><path d="M691 389L759 393L770 275Z" fill="#242424" stroke="#242424"></path><path d="M770 275L854 300L802 203Z" fill="#383838" stroke="#383838"></path><path d="M802 203L790 90L702 169Z" fill="#1a1a1a" stroke="#1a1a1a"></path><path d="M162 0L98 92L191 60Z" fill="#2e2e2e" stroke="#2e2e2e"></path><path d="M98 92L78 141L229 168Z" fill="#090909" stroke="#090909"></path><path d="M570 540L649 540L636 424Z" fill="#090909" stroke="#090909"></path><path d="M68 387L123 424L172 366Z" fill="#242424" stroke="#242424"></path><path d="M172 366L123 424L225 423Z" fill="#1f1f1f" stroke="#1f1f1f"></path><path d="M649 540L767 433L636 424Z" fill="#161616" stroke="#161616"></path><path d="M836 390L854 300L770 275Z" fill="#333333" stroke="#333333"></path><path d="M851 142L835 108L802 203Z" fill="#333333" stroke="#333333"></path><path d="M802 203L835 108L790 90Z" fill="#2e2e2e" stroke="#2e2e2e"></path><path d="M790 90L791 0L709 0Z" fill="#000000" stroke="#000000"></path><path d="M855 0L791 0L790 90Z" fill="#1a1a1a" stroke="#1a1a1a"></path><path d="M960 239L851 142L802 203Z" fill="#090909" stroke="#090909"></path><path d="M835 108L855 0L790 90Z" fill="#161616" stroke="#161616"></path><path d="M162 0L86 0L98 92Z" fill="#090909" stroke="#090909"></path><path d="M0 102L0 143L78 141Z" fill="#1a1a1a" stroke="#1a1a1a"></path><path d="M836 390L770 275L759 393Z" fill="#161616" stroke="#161616"></path><path d="M0 282L68 387L89 250Z" fill="#333333" stroke="#333333"></path><path d="M89 250L68 387L172 366Z" fill="#090909" stroke="#090909"></path><path d="M899 413L836 390L861 540Z" fill="#101010" stroke="#101010"></path><path d="M767 433L836 390L759 393Z" fill="#1f1f1f" stroke="#1f1f1f"></path><path d="M123 424L171 540L225 423Z" fill="#383838" stroke="#383838"></path><path d="M96 540L171 540L123 424Z" fill="#101010" stroke="#101010"></path><path d="M0 102L78 141L98 92Z" fill="#292929" stroke="#292929"></path><path d="M78 141L0 143L89 250Z" fill="#333333" stroke="#333333"></path><path d="M0 143L0 282L89 250Z" fill="#2e2e2e" stroke="#2e2e2e"></path><path d="M960 64L855 0L835 108Z" fill="#1f1f1f" stroke="#1f1f1f"></path><path d="M960 64L835 108L851 142Z" fill="#161616" stroke="#161616"></path><path d="M86 0L0 102L98 92Z" fill="#090909" stroke="#090909"></path><path d="M649 540L785 540L767 433Z" fill="#242424" stroke="#242424"></path><path d="M0 282L0 385L68 387Z" fill="#090909" stroke="#090909"></path><path d="M0 431L96 540L123 424Z" fill="#161616" stroke="#161616"></path><path d="M0 431L123 424L68 387Z" fill="#000000" stroke="#000000"></path><path d="M86 0L0 0L0 102Z" fill="#1f1f1f" stroke="#1f1f1f"></path><path d="M861 540L836 390L767 433Z" fill="#1a1a1a" stroke="#1a1a1a"></path><path d="M836 390L899 413L854 300Z" fill="#383838" stroke="#383838"></path><path d="M854 300L960 239L802 203Z" fill="#161616" stroke="#161616"></path><path d="M0 385L0 431L68 387Z" fill="#333333" stroke="#333333"></path><path d="M960 334L960 239L854 300Z" fill="#1a1a1a" stroke="#1a1a1a"></path><path d="M960 239L960 157L851 142Z" fill="#2e2e2e" stroke="#2e2e2e"></path><path d="M899 413L960 334L854 300Z" fill="#000000" stroke="#000000"></path><path d="M785 540L861 540L767 433Z" fill="#101010" stroke="#101010"></path><path d="M899 413L960 436L960 334Z" fill="#292929" stroke="#292929"></path><path d="M960 157L960 64L851 142Z" fill="#2e2e2e" stroke="#2e2e2e"></path><path d="M960 64L960 0L855 0Z" fill="#000000" stroke="#000000"></path><path d="M0 431L0 540L96 540Z" fill="#161616" stroke="#161616"></path><path d="M861 540L960 436L899 413Z" fill="#2e2e2e" stroke="#2e2e2e"></path><path d="M861 540L960 540L960 436Z" fill="#333333" stroke="#333333"></path></g></svg>