<svg id="visual" viewBox="0 0 900 600" width="900" height="600" xmlns="http://www.w3.org/2000/svg" xmlns:xlink="http://www.w3.org/1999/xlink" version="1.1"><g stroke-width="1" stroke-linejoin="bevel"><path d="M424 311L476 272L416 229Z" fill="#131414" stroke="#131414"></path><path d="M294 339L378 375L424 311Z" fill="#101212" stroke="#101212"></path><path d="M424 311L537 415L476 272Z" fill="#191a1a" stroke="#191a1a"></path><path d="M476 272L514 179L416 229Z" fill="#131414" stroke="#131414"></path><path d="M423 130L302 223L416 229Z" fill="#0f1011" stroke="#0f1011"></path><path d="M416 229L302 223L424 311Z" fill="#121313" stroke="#121313"></path><path d="M514 179L423 130L416 229Z" fill="#151616" stroke="#151616"></path><path d="M302 223L294 339L424 311Z" fill="#141515" stroke="#141515"></path><path d="M476 272L592 196L514 179Z" fill="#0f1011" stroke="#0f1011"></path><path d="M514 179L470 78L423 130Z" fill="#121313" stroke="#121313"></path><path d="M602 335L592 196L476 272Z" fill="#181919" stroke="#181919"></path><path d="M378 375L537 415L424 311Z" fill="#161717" stroke="#161717"></path><path d="M537 415L602 335L476 272Z" fill="#171818" stroke="#171818"></path><path d="M603 133L470 78L514 179Z" fill="#161717" stroke="#161717"></path><path d="M423 130L314 71L302 223Z" fill="#0e0f10" stroke="#0e0f10"></path><path d="M302 223L234 317L294 339Z" fill="#141515" stroke="#141515"></path><path d="M294 339L291 439L378 375Z" fill="#161717" stroke="#161717"></path><path d="M716 216L603 133L592 196Z" fill="#131414" stroke="#131414"></path><path d="M592 196L603 133L514 179Z" fill="#191a1a" stroke="#191a1a"></path><path d="M203 374L291 439L294 339Z" fill="#161717" stroke="#161717"></path><path d="M378 375L414 532L537 415Z" fill="#121313" stroke="#121313"></path><path d="M382 0L314 71L423 130Z" fill="#141515" stroke="#141515"></path><path d="M302 223L210 180L234 317Z" fill="#131414" stroke="#131414"></path><path d="M314 71L210 180L302 223Z" fill="#181919" stroke="#181919"></path><path d="M95 302L203 374L234 317Z" fill="#171818" stroke="#171818"></path><path d="M234 317L203 374L294 339Z" fill="#121313" stroke="#121313"></path><path d="M537 415L629 432L602 335Z" fill="#151616" stroke="#151616"></path><path d="M602 335L716 216L592 196Z" fill="#141515" stroke="#141515"></path><path d="M588 521L629 432L537 415Z" fill="#181919" stroke="#181919"></path><path d="M629 432L668 376L602 335Z" fill="#141515" stroke="#141515"></path><path d="M281 521L414 532L291 439Z" fill="#171818" stroke="#171818"></path><path d="M291 439L414 532L378 375Z" fill="#0f1011" stroke="#0f1011"></path><path d="M414 532L477 537L537 415Z" fill="#121313" stroke="#121313"></path><path d="M634 0L478 0L470 78Z" fill="#0e0f10" stroke="#0e0f10"></path><path d="M470 78L382 0L423 130Z" fill="#0e0f10" stroke="#0e0f10"></path><path d="M478 0L382 0L470 78Z" fill="#161717" stroke="#161717"></path><path d="M771 315L706 333L822 409Z" fill="#101212" stroke="#101212"></path><path d="M668 376L706 333L602 335Z" fill="#131414" stroke="#131414"></path><path d="M314 71L209 96L210 180Z" fill="#171818" stroke="#171818"></path><path d="M210 180L95 302L234 317Z" fill="#141515" stroke="#141515"></path><path d="M172 0L209 96L314 71Z" fill="#121313" stroke="#121313"></path><path d="M706 333L716 216L602 335Z" fill="#0f1011" stroke="#0f1011"></path><path d="M603 133L634 0L470 78Z" fill="#0f1011" stroke="#0f1011"></path><path d="M382 0L326 0L314 71Z" fill="#121313" stroke="#121313"></path><path d="M222 520L281 521L291 439Z" fill="#101212" stroke="#101212"></path><path d="M477 537L588 521L537 415Z" fill="#141515" stroke="#141515"></path><path d="M822 409L706 333L668 376Z" fill="#161717" stroke="#161717"></path><path d="M716 216L692 70L603 133Z" fill="#0e0f10" stroke="#0e0f10"></path><path d="M203 374L222 520L291 439Z" fill="#101212" stroke="#101212"></path><path d="M281 521L407 600L414 532Z" fill="#151616" stroke="#151616"></path><path d="M414 532L407 600L477 537Z" fill="#141515" stroke="#141515"></path><path d="M282 600L407 600L281 521Z" fill="#151616" stroke="#151616"></path><path d="M477 537L577 600L588 521Z" fill="#0e0f10" stroke="#0e0f10"></path><path d="M692 70L634 0L603 133Z" fill="#151616" stroke="#151616"></path><path d="M407 600L490 600L477 537Z" fill="#151616" stroke="#151616"></path><path d="M88 212L95 302L210 180Z" fill="#191a1a" stroke="#191a1a"></path><path d="M203 374L126 436L222 520Z" fill="#131414" stroke="#131414"></path><path d="M706 333L771 315L716 216Z" fill="#141515" stroke="#141515"></path><path d="M716 216L761 121L692 70Z" fill="#0e0f10" stroke="#0e0f10"></path><path d="M729 527L668 376L629 432Z" fill="#171818" stroke="#171818"></path><path d="M95 302L126 436L203 374Z" fill="#181919" stroke="#181919"></path><path d="M78 85L88 212L210 180Z" fill="#0e0f10" stroke="#0e0f10"></path><path d="M771 315L784 196L716 216Z" fill="#161717" stroke="#161717"></path><path d="M784 196L761 121L716 216Z" fill="#101212" stroke="#101212"></path><path d="M692 70L728 0L634 0Z" fill="#171818" stroke="#171818"></path><path d="M490 600L577 600L477 537Z" fill="#121313" stroke="#121313"></path><path d="M588 521L729 527L629 432Z" fill="#131414" stroke="#131414"></path><path d="M216 600L282 600L222 520Z" fill="#151616" stroke="#151616"></path><path d="M222 520L282 600L281 521Z" fill="#0e0f10" stroke="#0e0f10"></path><path d="M0 478L123 461L126 436Z" fill="#181919" stroke="#181919"></path><path d="M126 436L123 461L222 520Z" fill="#0f1011" stroke="#0f1011"></path><path d="M326 0L172 0L314 71Z" fill="#131414" stroke="#131414"></path><path d="M209 96L78 85L210 180Z" fill="#121313" stroke="#121313"></path><path d="M734 600L729 527L588 521Z" fill="#191a1a" stroke="#191a1a"></path><path d="M120 600L216 600L222 520Z" fill="#141515" stroke="#141515"></path><path d="M836 0L728 0L761 121Z" fill="#151616" stroke="#151616"></path><path d="M761 121L728 0L692 70Z" fill="#171818" stroke="#171818"></path><path d="M172 0L78 85L209 96Z" fill="#161717" stroke="#161717"></path><path d="M0 216L0 316L95 302Z" fill="#131414" stroke="#131414"></path><path d="M792 495L822 409L668 376Z" fill="#161717" stroke="#161717"></path><path d="M771 315L900 281L784 196Z" fill="#171818" stroke="#171818"></path><path d="M172 0L113 0L78 85Z" fill="#0f1011" stroke="#0f1011"></path><path d="M729 527L792 495L668 376Z" fill="#141515" stroke="#141515"></path><path d="M95 302L0 389L126 436Z" fill="#101212" stroke="#101212"></path><path d="M123 461L120 600L222 520Z" fill="#191a1a" stroke="#191a1a"></path><path d="M0 216L95 302L88 212Z" fill="#0f1011" stroke="#0f1011"></path><path d="M0 85L0 216L78 85Z" fill="#151616" stroke="#151616"></path><path d="M78 85L0 216L88 212Z" fill="#181919" stroke="#181919"></path><path d="M577 600L734 600L588 521Z" fill="#101212" stroke="#101212"></path><path d="M729 527L795 600L792 495Z" fill="#141515" stroke="#141515"></path><path d="M0 316L0 389L95 302Z" fill="#121313" stroke="#121313"></path><path d="M0 478L120 600L123 461Z" fill="#131414" stroke="#131414"></path><path d="M900 382L900 281L771 315Z" fill="#171818" stroke="#171818"></path><path d="M784 196L900 172L761 121Z" fill="#0f1011" stroke="#0f1011"></path><path d="M900 382L771 315L822 409Z" fill="#181919" stroke="#181919"></path><path d="M0 0L0 85L78 85Z" fill="#171818" stroke="#171818"></path><path d="M900 281L900 172L784 196Z" fill="#121313" stroke="#121313"></path><path d="M900 501L900 382L822 409Z" fill="#191a1a" stroke="#191a1a"></path><path d="M900 501L822 409L792 495Z" fill="#191a1a" stroke="#191a1a"></path><path d="M0 389L0 478L126 436Z" fill="#101212" stroke="#101212"></path><path d="M900 93L836 0L761 121Z" fill="#0f1011" stroke="#0f1011"></path><path d="M734 600L795 600L729 527Z" fill="#171818" stroke="#171818"></path><path d="M900 172L900 93L761 121Z" fill="#131414" stroke="#131414"></path><path d="M113 0L0 0L78 85Z" fill="#181919" stroke="#181919"></path><path d="M795 600L900 501L792 495Z" fill="#181919" stroke="#181919"></path><path d="M900 93L900 0L836 0Z" fill="#191a1a" stroke="#191a1a"></path><path d="M0 478L0 600L120 600Z" fill="#151616" stroke="#151616"></path><path d="M795 600L900 600L900 501Z" fill="#121313" stroke="#121313"></path></g></svg>